<svg id="Layer_1" data-name="Layer 1" xmlns="http://www.w3.org/2000/svg" width="269.8" height="126.4" viewBox="0 0 269.8 126.4">
  <defs>
    <style>
      .cls-1 {
        fill: #495885;
      }
    </style>
  </defs>
  <g id="logo-group">
    <g id="logo-center">
      <g id="title">
        <path id="path120204" class="cls-1" d="M79.5,97a3.2,3.2,0,0,1,2.9,1.7,8.3,8.3,0,0,1,1.2,4.8c0,3.8-1,6.8-2.8,8.9-3.5,4.3-8.6,8.3-15.1,11.9A40.6,40.6,0,0,1,45,129.8c-10.1,0-17.9-2.7-23.5-8.2s-8.4-13-8.4-22.5a41.1,41.1,0,0,1,4.2-18.4A34.4,34.4,0,0,1,28.8,67a30,30,0,0,1,16.9-5c5.6,0,10,1.7,13.4,5s5,7.8,5,13.4a23.6,23.6,0,0,1-7.2,17.2c-4.7,4.7-12.7,8.4-24,11.2,2.4,4.4,6.9,6.6,13.7,6.6,4.3,0,9.2-1.5,14.6-4.5A47.3,47.3,0,0,0,75.6,99,5,5,0,0,1,79.5,97ZM43.2,76.1c-3.5,0-6.5,2.1-9,6.2s-3.6,9.1-3.6,15v.3c5.6-1.4,10.1-3.4,13.4-6.1s4.9-5.8,4.9-9.4a6.1,6.1,0,0,0-1.6-4.3,5.2,5.2,0,0,0-4.1-1.7Z" transform="translate(-13.1 -3.4)"/>
        <path id="path120206" class="cls-1" d="M136.1,97a3.1,3.1,0,0,1,2.8,1.7,8.3,8.3,0,0,1,1.2,4.8c0,3.8-.9,6.8-2.7,8.9a63.5,63.5,0,0,1-13.6,12.5,29.3,29.3,0,0,1-16.8,4.9q-29.4,0-29.4-41.3c0-4.2.1-8.5.4-12.8H72.4c-2.9,0-4.8-.6-5.9-1.6s-1.4-2.8-1.4-5.1c0-5.3,2.1-8,6.4-8h8.3a142.9,142.9,0,0,1,7.4-29c3.4-8.7,7.4-15.7,12.1-20.8s10-7.8,15.4-7.8,7.2,1.8,9.6,5.3,3.4,8,3.4,13.4c0,14.9-6.2,27.8-18.7,38.9h16.1c1.6,0,2.7.3,3.3,1s1,1.9,1,3.7c0,6.7-5.4,10-16.2,10H95.6c-.2,4.8-.3,8.5-.3,11.2,0,10,1.2,17,3.5,21s6.1,6.1,11.2,6.1a17,17,0,0,0,10.9-3.8A83.3,83.3,0,0,0,132.2,99,4.7,4.7,0,0,1,136.1,97ZM110.9,17.2c-1.5,0-3.1,1.8-4.9,5.5s-3.4,8.5-5.1,14.9S98.1,51,97,58.8a48.9,48.9,0,0,0,12.7-16.4c2.9-6.1,4.3-11.7,4.3-16.7S113,17.2,110.9,17.2Z" transform="translate(-13.1 -3.4)"/>
        <path id="path120208" class="cls-1" d="M187,97a3.1,3.1,0,0,1,2.8,1.7,8.3,8.3,0,0,1,1.2,4.8c0,3.8-.9,6.8-2.7,8.9a63.5,63.5,0,0,1-13.6,12.5,29.3,29.3,0,0,1-16.8,4.9q-29.4,0-29.4-41.3c0-4.2.1-8.5.4-12.8h-5.6c-2.9,0-4.8-.6-5.9-1.6A8,8,0,0,1,116,69c0-5.3,2.1-8,6.5-8h8.2a142.9,142.9,0,0,1,7.4-29c3.4-8.7,7.4-15.7,12.1-20.8s10-7.8,15.5-7.8a10.9,10.9,0,0,1,9.5,5.3c2.3,3.6,3.4,8,3.4,13.4,0,14.9-6.2,27.8-18.7,38.9H176c1.6,0,2.7.3,3.3,1s1,1.9,1,3.7c0,6.7-5.4,10-16.2,10H146.5c-.2,4.8-.3,8.5-.3,11.2,0,10,1.2,17,3.5,21s6.1,6.1,11.2,6.1a17,17,0,0,0,10.9-3.8A83.3,83.3,0,0,0,183.1,99a4.7,4.7,0,0,1,3.9-2ZM161.8,17.2c-1.5,0-3.1,1.8-4.9,5.5s-3.4,8.5-5.1,14.9S149,51,147.9,58.8a48.9,48.9,0,0,0,12.7-16.4c2.9-6.1,4.3-11.7,4.3-16.7S163.9,17.2,161.8,17.2Z" transform="translate(-13.1 -3.4)"/>
        <path id="path120210" class="cls-1" d="M198.1,52.5c-4,0-7-.9-9-2.8s-3.1-4.5-3.1-7.9a10.5,10.5,0,0,1,3.9-8.3,14.9,14.9,0,0,1,10-3.5,13.8,13.8,0,0,1,8.6,2.6,8.8,8.8,0,0,1,3.3,7.4,11.9,11.9,0,0,1-3.7,9.2c-2.5,2.2-5.8,3.3-10,3.3ZM197,129.8c-6.3,0-10.8-2.2-13.7-6.6s-4.2-10.3-4.2-17.6a118.6,118.6,0,0,1,1.6-16.5A180.5,180.5,0,0,1,185,70c.9-3,2-5.1,3.5-6.3s3.7-1.7,6.9-1.7c4.9,0,7.3,1.6,7.3,4.9s-.9,7.9-2.7,16.7c-2.3,10.5-3.4,17.7-3.4,21.4a15.3,15.3,0,0,0,1.1,6.7,4.1,4.1,0,0,0,3.9,2.3c1.7,0,3.9-1.2,6.5-3.6A124.8,124.8,0,0,0,218.4,99a5,5,0,0,1,3.9-2,3.2,3.2,0,0,1,2.9,1.7,8.3,8.3,0,0,1,1.2,4.8c0,3.8-1,6.8-2.8,8.9-9.5,11.6-18.4,17.4-26.6,17.4Z" transform="translate(-13.1 -3.4)"/>
        <path id="path120212" class="cls-1" d="M278.9,97a3.2,3.2,0,0,1,2.9,1.7,8.3,8.3,0,0,1,1.2,4.8c0,3.8-.9,6.8-2.8,8.9-3.5,4.3-8.6,8.3-15.1,11.9a40.6,40.6,0,0,1-20.7,5.5c-10.1,0-17.9-2.7-23.5-8.2s-8.3-13-8.3-22.5a41,41,0,0,1,4.1-18.4A35.2,35.2,0,0,1,228.2,67a30.2,30.2,0,0,1,16.9-5c5.6,0,10,1.7,13.4,5s5,7.8,5,13.4a23.6,23.6,0,0,1-7.2,17.2c-4.7,4.7-12.7,8.4-24,11.2,2.4,4.4,6.9,6.6,13.7,6.6,4.3,0,9.2-1.5,14.6-4.5A47.3,47.3,0,0,0,275,99a5,5,0,0,1,3.9-2ZM242.6,76.1c-3.5,0-6.5,2.1-9,6.2s-3.6,9.1-3.6,15v.3c5.6-1.4,10.1-3.4,13.4-6.1s4.9-5.8,4.9-9.4a6.1,6.1,0,0,0-1.6-4.3A5.2,5.2,0,0,0,242.6,76.1Z" transform="translate(-13.1 -3.4)"/>
      </g>
    </g>
  </g>
</svg>
